<?xml version="1.0" encoding="utf-8"?>
<!-- Generator: Adobe Illustrator 16.0.0, SVG Export Plug-In . SVG Version: 6.00 Build 0)  -->
<!DOCTYPE svg PUBLIC "-//W3C//DTD SVG 1.1//EN" "http://www.w3.org/Graphics/SVG/1.1/DTD/svg11.dtd">
<svg version="1.1" id="레이어_1" xmlns="http://www.w3.org/2000/svg" xmlns:xlink="http://www.w3.org/1999/xlink" x="0px"
	 y="0px" width="1080px" height="1080px" viewBox="0 0 1080 1080" enable-background="new 0 0 1080 1080" xml:space="preserve">
<g>
	<defs>
		<rect id="SVGID_1_" width="1080" height="1080"/>
	</defs>
	<clipPath id="SVGID_2_">
		<use xlink:href="#SVGID_1_"  overflow="visible"/>
	</clipPath>
	<path clip-path="url(#SVGID_2_)" fill="#FFFFFF" d="M537.77,726.5c-69.074,0-125.27-56.195-125.27-125.27V478.769
		c0-69.074,56.196-125.269,125.27-125.269h4.461c69.074,0,125.269,56.195,125.269,125.269V601.23
		c0,69.074-56.194,125.27-125.269,125.27H537.77z"/>
	<path clip-path="url(#SVGID_2_)" d="M542.23,354c33.327,0,64.66,12.978,88.226,36.544S667,445.442,667,478.769V601.23
		c0,33.327-12.979,64.66-36.544,88.226S575.558,726,542.23,726h-4.461c-33.327,0-64.66-12.979-88.226-36.544
		C425.979,665.891,413,634.558,413,601.23V478.769c0-33.327,12.978-64.659,36.543-88.225C473.109,366.978,504.442,354,537.77,354
		H542.23 M542.23,353h-4.461C468.309,353,412,409.309,412,478.769V601.23C412,670.691,468.309,727,537.77,727h4.461
		C611.691,727,668,670.691,668,601.23V478.769C668,409.309,611.691,353,542.23,353"/>
	<path clip-path="url(#SVGID_2_)" fill="#FFFFFF" d="M412,519.813c0,0,51.5-24.313,128.5-24.313S668,519.813,668,519.813"/>
	<path clip-path="url(#SVGID_2_)" fill="none" stroke="#000000" stroke-miterlimit="10" d="M412,519.813
		c0,0,51.5-24.313,128.5-24.313S668,519.813,668,519.813"/>
	<path clip-path="url(#SVGID_2_)" fill="#FFFFFF" d="M540,507.5c-6.963,0-12.629-5.666-12.629-12.629v-81.742
		c0-6.963,5.666-12.629,12.629-12.629c6.964,0,12.629,5.666,12.629,12.629v81.742C552.629,501.834,546.964,507.5,540,507.5"/>
	<path clip-path="url(#SVGID_2_)" d="M540,401c6.687,0,12.129,5.441,12.129,12.129v81.742c0,6.688-5.442,12.129-12.129,12.129
		c-6.688,0-12.129-5.441-12.129-12.129v-81.742C527.871,406.441,533.312,401,540,401 M540,400c-7.251,0-13.129,5.878-13.129,13.129
		v81.742c0,7.251,5.878,13.129,13.129,13.129s13.129-5.878,13.129-13.129v-81.742C553.129,405.878,547.251,400,540,400"/>
	<line clip-path="url(#SVGID_2_)" fill="#FFFFFF" x1="539.5" y1="400.5" x2="539.5" y2="353"/>
	
		<line clip-path="url(#SVGID_2_)" fill="none" stroke="#000000" stroke-miterlimit="10" x1="539.5" y1="400.5" x2="539.5" y2="353"/>
</g>
</svg>
