<?xml version="1.0" encoding="utf-8"?>
<!-- Generator: Adobe Illustrator 24.1.1, SVG Export Plug-In . SVG Version: 6.00 Build 0)  -->
<svg version="1.1" id="레이어_1" xmlns="http://www.w3.org/2000/svg" xmlns:xlink="http://www.w3.org/1999/xlink" x="0px"
	 y="0px" viewBox="0 0 100 100" style="enable-background:new 0 0 100 100;" xml:space="preserve">
<style type="text/css">
	.st0{fill:#FFFFFF;}
	.st1{fill:#FFFFFF;stroke:#000000;stroke-miterlimit:10;}
</style>
<g>
	<path class="st0" d="M50,91.5c-15.58,0-28.25-12.67-28.25-28.25v-26.5C21.75,21.17,34.42,8.5,50,8.5s28.25,12.67,28.25,28.25v26.5
		C78.25,78.83,65.58,91.5,50,91.5z"/>
	<path d="M50,9c15.3,0,27.75,12.45,27.75,27.75v26.5C77.75,78.55,65.3,91,50,91S22.25,78.55,22.25,63.25v-26.5
		C22.25,21.45,34.7,9,50,9 M50,8C34.12,8,21.25,20.87,21.25,36.75v26.5C21.25,79.13,34.12,92,50,92s28.75-12.87,28.75-28.75v-26.5
		C78.75,20.87,65.88,8,50,8L50,8z"/>
</g>
<path class="st1" d="M21.25,45.47c0,0,11.57-5.46,28.86-5.46s28.64,5.46,28.64,5.46"/>
<g>
	<path class="st0" d="M50,42.31c-1.35,0-2.45-1.1-2.45-2.45V21.5c0-1.35,1.1-2.45,2.45-2.45c1.35,0,2.45,1.1,2.45,2.45v18.36
		C52.45,41.21,51.35,42.31,50,42.31z"/>
	<path d="M50,19.56c1.07,0,1.95,0.87,1.95,1.95v18.36c0,1.07-0.87,1.95-1.95,1.95s-1.95-0.87-1.95-1.95V21.5
		C48.05,20.43,48.93,19.56,50,19.56 M50,18.56c-1.63,0-2.95,1.32-2.95,2.95v18.36c0,1.63,1.32,2.95,2.95,2.95s2.95-1.32,2.95-2.95
		V21.5C52.95,19.88,51.63,18.56,50,18.56L50,18.56z"/>
</g>
<line class="st1" x1="49.89" y1="18.67" x2="49.89" y2="8"/>
</svg>
